<?xml version="1.0" encoding="UTF-8" standalone="no"?>
<!-- Generator: Adobe Illustrator 18.1.0, SVG Export Plug-In . SVG Version: 6.00 Build 0)  -->

<svg
   xmlns:dc="http://purl.org/dc/elements/1.1/"
   xmlns:cc="http://creativecommons.org/ns#"
   xmlns:rdf="http://www.w3.org/1999/02/22-rdf-syntax-ns#"
   xmlns:svg="http://www.w3.org/2000/svg"
   xmlns="http://www.w3.org/2000/svg"
   xmlns:sodipodi="http://sodipodi.sourceforge.net/DTD/sodipodi-0.dtd"
   xmlns:inkscape="http://www.inkscape.org/namespaces/inkscape"
   version="1.1"
   id="Menu"
   x="0px"
   y="0px"
   viewBox="0 0 20 20"
   enable-background="new 0 0 20 20"
   xml:space="preserve"
   inkscape:version="0.48.3.1 r9886"
   width="100%"
   height="100%"
   sodipodi:docname="menu.svg"><metadata
   id="metadata3055"><rdf:RDF><cc:Work
       rdf:about=""><dc:format>image/svg+xml</dc:format><dc:type
         rdf:resource="http://purl.org/dc/dcmitype/StillImage" /><dc:title></dc:title></cc:Work></rdf:RDF></metadata><defs
   id="defs3053" /><sodipodi:namedview
   pagecolor="#ffffff"
   bordercolor="#666666"
   borderopacity="1"
   objecttolerance="10"
   gridtolerance="10"
   guidetolerance="10"
   inkscape:pageopacity="0"
   inkscape:pageshadow="2"
   inkscape:window-width="1366"
   inkscape:window-height="746"
   id="namedview3051"
   showgrid="false"
   inkscape:zoom="29.4"
   inkscape:cx="10"
   inkscape:cy="10"
   inkscape:window-x="0"
   inkscape:window-y="0"
   inkscape:window-maximized="1"
   inkscape:current-layer="Menu" />
<path
   d="M 11,16.4 11,3.6 C 11,3.048 10.553,3 10,3 9.447,3 9,3.048 9,3.6 l 0,12.8 c 0,0.552 0.447,0.6 1,0.6 0.553,0 1,-0.048 1,-0.6 z M 7,16.4 7,3.6 C 7,3.048 6.553,3 6,3 5.447,3 5,3.048 5,3.6 l 0,12.8 c 0,0.552 0.447,0.6 1,0.6 0.553,0 1,-0.048 1,-0.6 z m 6,-12.8 0,12.8 c 0,0.552 0.447,0.6 1,0.6 0.553,0 1,-0.048 1,-0.6 L 15,3.6 C 15,3.048 14.553,3 14,3 13.447,3 13,3.048 13,3.6 z"
   id="path3049"
   inkscape:connector-curvature="0" />
</svg>